<svg xmlns="http://www.w3.org/2000/svg" viewBox="0 0 510.42 176.19"><defs><style>.cls-1{fill:#121b35;}.cls-2{fill:#2d4d73;}</style></defs><g id="Layer_2" data-name="Layer 2"><g id="Layer_1-2" data-name="Layer 1"><path class="cls-1" d="M48.76,64a46.54,46.54,0,0,0-8.3-7.27,30.1,30.1,0,0,0-9-4.26,37.94,37.94,0,0,0,11.25-6.93,52,52,0,0,0,9.44-11,40.89,40.89,0,0,0,5.68-13.47H40.92a33.75,33.75,0,0,1-5.23,12.22,33.31,33.31,0,0,1-8.87,8.81A28.44,28.44,0,0,1,16,46.6V0H0V84.1H16V59.33a24.73,24.73,0,0,1,8.46,2.5,32.27,32.27,0,0,1,7.62,5.23,34.17,34.17,0,0,1,6.08,7.5,31.16,31.16,0,0,1,3.75,9.54H59a35.14,35.14,0,0,0-3.64-10.62A46.28,46.28,0,0,0,48.76,64Z" transform="translate(0)"/><path class="cls-1" d="M111.21,24.27a34.2,34.2,0,0,0-16.42-3.93,34.14,34.14,0,0,0-16.54,4A30.2,30.2,0,0,0,66.6,35.52a32.44,32.44,0,0,0-4.32,17,33.62,33.62,0,0,0,4.27,17.16A29,29,0,0,0,78,81,33.86,33.86,0,0,0,94.45,84.9,34.66,34.66,0,0,0,110.93,81a30,30,0,0,0,11.82-11.31,32.73,32.73,0,0,0,4.43-17.16,32.73,32.73,0,0,0-4.32-17.11A29.6,29.6,0,0,0,111.21,24.27Zm-2.78,38.58A16,16,0,0,1,102.29,69a16.4,16.4,0,0,1-8,2,15.46,15.46,0,0,1-7.78-2,14.8,14.8,0,0,1-5.74-6.14,22,22,0,0,1-2.16-10.34,20.92,20.92,0,0,1,2.27-10.23,15.16,15.16,0,0,1,5.86-6.08,15.7,15.7,0,0,1,7.78-2,16.37,16.37,0,0,1,7.9,2,15.25,15.25,0,0,1,6,6.08,20.37,20.37,0,0,1,2.33,10.23A20.29,20.29,0,0,1,108.43,62.85Z" transform="translate(0)"/><path class="cls-1" d="M185.2,23.53a24.28,24.28,0,0,0-12.56-3.19,20.68,20.68,0,0,0-8.29,1.77,22.38,22.38,0,0,0-7.22,4.94,19.57,19.57,0,0,0-4.6,7.39V21.14h-16v63h16V51.15a20.64,20.64,0,0,1,1.81-8.87,15,15,0,0,1,5-6.08A12.38,12.38,0,0,1,166.62,34a12.9,12.9,0,0,1,10.11,4.32Q180.6,42.62,180.6,50V84.1h15.91V46.94a31.93,31.93,0,0,0-2.95-14.26A21.35,21.35,0,0,0,185.2,23.53Z" transform="translate(0)"/><path class="cls-1" d="M231.86,16.48a5,5,0,0,0,.79-3.3V5.57h-15.8V15.68a5.48,5.48,0,0,1-1.42,4A4.69,4.69,0,0,1,213,21c8.15-1,14.21-2,16.49-2.86A4.72,4.72,0,0,0,231.86,16.48Z" transform="translate(0)"/><path class="cls-1" d="M240.89,70.58a7.18,7.18,0,0,1-2.56.45,5.75,5.75,0,0,1-3.86-1.47,5.55,5.55,0,0,1-1.7-4.44v-31h13.86v-13H206.74v13h9.77V64.67q0,9.66,5.17,15t14,5.28a20.81,20.81,0,0,0,7.05-1.14,21,21,0,0,0,6.14-3.52l-5.69-11A8.73,8.73,0,0,1,240.89,70.58Z" transform="translate(0)"/><path class="cls-1" d="M276.41,51.07V21.14h-16v63h16V56.47A20.13,20.13,0,0,1,276.41,51.07Z" transform="translate(0)"/><path class="cls-1" d="M283.74,24.49c-3.34,2.6-6.21,12-7.07,25.1a17.51,17.51,0,0,1,1.78-4.81,14.94,14.94,0,0,1,5.57-6,15.72,15.72,0,0,1,8.07-2c.61,0,1.25,0,1.93.06a8.16,8.16,0,0,1,2.05.39V20.46a20.16,20.16,0,0,0-9.09,2A21.9,21.9,0,0,0,283.74,24.49Z" transform="translate(0)"/><path class="cls-1" d="M276.41,56.47c0-2.39.12-4.68.26-6.88-.11.51-.2,1-.26,1.48Z" transform="translate(0)"/><path class="cls-1" d="M349.88,24.27a36.31,36.31,0,0,0-33,.05,30.11,30.11,0,0,0-11.64,11.2,32.35,32.35,0,0,0-4.32,17,33.71,33.71,0,0,0,4.26,17.16A29.09,29.09,0,0,0,316.7,81a33.86,33.86,0,0,0,16.42,3.92A34.66,34.66,0,0,0,349.6,81a29.93,29.93,0,0,0,11.82-11.31,32.63,32.63,0,0,0,4.43-17.16,32.73,32.73,0,0,0-4.32-17.11A29.6,29.6,0,0,0,349.88,24.27ZM347.1,62.85A16,16,0,0,1,341,69,16.39,16.39,0,0,1,333,71a15.47,15.47,0,0,1-7.79-2,14.8,14.8,0,0,1-5.74-6.14,22,22,0,0,1-2.16-10.34,20.81,20.81,0,0,1,2.28-10.23,15.07,15.07,0,0,1,5.85-6.08,15.72,15.72,0,0,1,7.78-2,16.35,16.35,0,0,1,7.9,2,15.33,15.33,0,0,1,6,6.08,20.48,20.48,0,0,1,2.33,10.23A20.29,20.29,0,0,1,347.1,62.85Z" transform="translate(0)"/><path class="cls-1" d="M398.47,71.26A5.13,5.13,0,0,1,395,70,5,5,0,0,1,393.47,66V0h-16V67.17q0,6.48,2.61,10.34a15.43,15.43,0,0,0,6.59,5.63A20.35,20.35,0,0,0,395,84.9a19.31,19.31,0,0,0,9-2.05l-3-12A6.17,6.17,0,0,1,398.47,71.26Z" transform="translate(0)"/><path class="cls-1" d="M433.7,71.26a5.13,5.13,0,0,1-3.52-1.3A5,5,0,0,1,428.7,66V0h-16V67.17q0,6.48,2.61,10.34a15.43,15.43,0,0,0,6.59,5.63,20.35,20.35,0,0,0,8.3,1.76,19.28,19.28,0,0,0,9-2.05l-3-12A6.17,6.17,0,0,1,433.7,71.26Z" transform="translate(0)"/><path class="cls-1" d="M494.28,21.14V34.89a20.43,20.43,0,0,0-7.9-10.68,22.58,22.58,0,0,0-13.13-3.87,26.36,26.36,0,0,0-14.6,4.15,28.52,28.52,0,0,0-10.06,11.42A37,37,0,0,0,445,52.62a37,37,0,0,0,3.64,16.65,28.3,28.3,0,0,0,10.06,11.48,26.28,26.28,0,0,0,14.6,4.15A22.42,22.42,0,0,0,486.33,81a21.1,21.1,0,0,0,7.95-10.69v5.34a8.22,8.22,0,0,0,2.33,6.08,8.5,8.5,0,0,0,6.31,2.33h7.5v-63ZM492,62.57a16,16,0,0,1-6,6.25,16.18,16.18,0,0,1-8.13,2.1,16.36,16.36,0,0,1-8-2.1,15.72,15.72,0,0,1-6.14-6.25,20.06,20.06,0,0,1-2.33-10,19.62,19.62,0,0,1,2.33-9.94,16.47,16.47,0,0,1,6.08-6.2,16.16,16.16,0,0,1,16.14,0,16.47,16.47,0,0,1,6.08,6.2,19.62,19.62,0,0,1,2.33,9.94A20.06,20.06,0,0,1,492,62.57Z" transform="translate(0)"/><path class="cls-2" d="M6.91,175.58V128.42H13v47.16Zm3.28-24.44L13,139a14.5,14.5,0,0,1,5.78-8.25,18,18,0,0,1,10.37-2.9v6.4a5.74,5.74,0,0,0-1.25-.22c-.43,0-.85,0-1.25,0a11.53,11.53,0,0,0-7,2.24,15.6,15.6,0,0,0-4.88,6.14A20.55,20.55,0,0,0,13,151.14Z" transform="translate(0)"/><path class="cls-2" d="M56.32,176.19a18.4,18.4,0,0,1-9.93-2.59,17.29,17.29,0,0,1-6.4-7.09,22.76,22.76,0,0,1-2.24-10.28V128.42h6v26.09q0,7.86,4.06,12.13a13.67,13.67,0,0,0,10.36,4.28,13.13,13.13,0,0,0,7.52-2.29A16,16,0,0,0,71,162.28a21.44,21.44,0,0,0,2-9.5l1.82,2.93a23.47,23.47,0,0,1-2.51,11.45,16.56,16.56,0,0,1-6.69,6.78A19.34,19.34,0,0,1,56.32,176.19ZM73,171.78V128.42H79v47.16H76.79a3.83,3.83,0,0,1-2.76-1A3.71,3.71,0,0,1,73,171.78Z" transform="translate(0)"/><path class="cls-2" d="M92.86,175.58V128.42h6V138.7a15.68,15.68,0,0,1,3.32-5.31,17.54,17.54,0,0,1,5.7-4,20.18,20.18,0,0,1,17.67,1,17,17,0,0,1,6.35,7.13,23.31,23.31,0,0,1,2.2,10.32v27.73h-6v-26q0-7.86-4-12.18a13.44,13.44,0,0,0-10.37-4.32,13.15,13.15,0,0,0-7.52,2.29,16.28,16.28,0,0,0-5.39,6.39,21.21,21.21,0,0,0-2,9.55v24.27Z" transform="translate(0)"/><path class="cls-2" d="M174.66,119.52a4.82,4.82,0,0,1-3.37-1.34,4.31,4.31,0,0,1-1.47-3.32,4.23,4.23,0,0,1,1.34-3.24,4.9,4.9,0,0,1,3.5-1.26,5,5,0,0,1,3.41,1.26,4.1,4.1,0,0,1,1.43,3.24,4.37,4.37,0,0,1-1.43,3.32A4.76,4.76,0,0,1,174.66,119.52Zm-3,56.06V128.42h6v47.16Z" transform="translate(0)"/><path class="cls-2" d="M206.19,176.19a10.25,10.25,0,0,1-7.43-2.94,9.84,9.84,0,0,1-3-7.34v-32.4H187v-5.09h24.88v5.09H201.78v32.4a4.92,4.92,0,0,0,1.26,3.45,4.26,4.26,0,0,0,3.32,1.38,5.61,5.61,0,0,0,2.34-.51,18.44,18.44,0,0,0,2.07-1.13l2.76,4.75a10.12,10.12,0,0,1-3.28,1.69A13.11,13.11,0,0,1,206.19,176.19Zm-14.34-44.58v-3.19a3.5,3.5,0,0,0,3.89-3.89v-8h6.13v6.83a6.28,6.28,0,0,1-.39,2.24,4.59,4.59,0,0,1-1.16,1.77,4.1,4.1,0,0,1-2.08,1Z" transform="translate(0)"/><path class="cls-2" d="M262.68,176.19a22.94,22.94,0,0,1-9.28-1.73,16.11,16.11,0,0,1-6.31-4.71,15.83,15.83,0,0,1-3.15-6.69l5.53-1.21a11.39,11.39,0,0,0,4.1,6.52c2.16,1.76,5.17,2.63,9,2.63,3.39,0,6-.76,7.81-2.28a7.11,7.11,0,0,0,2.72-5.66,5.54,5.54,0,0,0-2-4.58,15.75,15.75,0,0,0-5.27-2.64q-3.22-1-6.86-1.94a42.53,42.53,0,0,1-6.87-2.42,13.75,13.75,0,0,1-5.27-4.06,10.92,10.92,0,0,1-2-6.91,10.61,10.61,0,0,1,2.07-6.39,14.54,14.54,0,0,1,5.84-4.58,20.56,20.56,0,0,1,8.68-1.73,19.33,19.33,0,0,1,8.46,1.64,14.47,14.47,0,0,1,5.36,4.32,15.4,15.4,0,0,1,2.68,6l-5.27,1.56a11.84,11.84,0,0,0-3.42-5.75c-1.75-1.69-4.42-2.54-8-2.54a11.89,11.89,0,0,0-7.51,2.16,6.46,6.46,0,0,0-2.77,5.27,6.35,6.35,0,0,0,2,5,14.61,14.61,0,0,0,5.23,2.86c2.13.69,4.41,1.35,6.82,2a48.45,48.45,0,0,1,6.83,2.33,13.74,13.74,0,0,1,5.22,3.85,10,10,0,0,1,2,6.61,11.61,11.61,0,0,1-2.07,6.78,13.88,13.88,0,0,1-5.74,4.66A20.37,20.37,0,0,1,262.68,176.19Z" transform="translate(0)"/><path class="cls-2" d="M290.5,175.58V128.42h6V138.7a16.24,16.24,0,0,1,3.24-5.31,17.11,17.11,0,0,1,5.4-4,16.54,16.54,0,0,1,7.34-1.56,18.91,18.91,0,0,1,11.06,3.24,15.92,15.92,0,0,1,6.31,9,16.59,16.59,0,0,1,3.45-6.31,17.27,17.27,0,0,1,6-4.36,18.58,18.58,0,0,1,7.69-1.6q8.46,0,13.43,5.32t5,14.46v28h-6V148.89q0-7.68-3.85-11.75a14.07,14.07,0,0,0-20.47.74q-4.1,4.78-4.1,13.43v24.27h-6v-26q0-7.86-3.8-12.18a13.66,13.66,0,0,0-17.54-2,15.84,15.84,0,0,0-5.22,6.39,22,22,0,0,0-1.95,9.55v24.27Z" transform="translate(0)"/><path class="cls-2" d="M397.35,176.19a21.11,21.11,0,0,1-11.19-3.07,22.08,22.08,0,0,1-8-8.55,26.08,26.08,0,0,1-3-12.66,25.8,25.8,0,0,1,3-12.61,21.82,21.82,0,0,1,8-8.46,21.35,21.35,0,0,1,11.19-3,22.57,22.57,0,0,1,11.75,3,17,17,0,0,1,7.25,8.12V128.42h6v47.16h-2.25a3.46,3.46,0,0,1-3.8-3.8v-6.91a17.9,17.9,0,0,1-7.43,8.21A22.07,22.07,0,0,1,397.35,176.19Zm1.47-5.27a17.25,17.25,0,0,0,8.89-2.33A16.82,16.82,0,0,0,414,162a20.66,20.66,0,0,0,2.33-10.07,20.44,20.44,0,0,0-2.33-10,16.58,16.58,0,0,0-6.31-6.52,18.42,18.42,0,0,0-17.79,0,16.64,16.64,0,0,0-6.31,6.52,20.55,20.55,0,0,0-2.33,10A20.78,20.78,0,0,0,383.61,162a16.89,16.89,0,0,0,6.31,6.61A17.31,17.31,0,0,0,398.82,170.92Z" transform="translate(0)"/><path class="cls-2" d="M436.22,175.58V128.42h6v47.16Zm3.28-24.44L442.27,139a14.5,14.5,0,0,1,5.78-8.25,18,18,0,0,1,10.37-2.9v6.4a5.74,5.74,0,0,0-1.25-.22c-.43,0-.85,0-1.25,0a11.51,11.51,0,0,0-7,2.24,15.6,15.6,0,0,0-4.88,6.14,20.55,20.55,0,0,0-1.81,8.81Z" transform="translate(0)"/><path class="cls-2" d="M483.56,176.19a10.24,10.24,0,0,1-7.43-2.94,9.81,9.81,0,0,1-3-7.34v-32.4h-8.72v-5.09h24.88v5.09H479.15v32.4a5,5,0,0,0,1.25,3.45,4.29,4.29,0,0,0,3.33,1.38,5.6,5.6,0,0,0,2.33-.51,16.84,16.84,0,0,0,2.07-1.13l2.77,4.75a10.22,10.22,0,0,1-3.28,1.69A13.11,13.11,0,0,1,483.56,176.19Zm-14.34-44.58v-3.19a3.49,3.49,0,0,0,3.88-3.89v-8h6.14v6.83a6.28,6.28,0,0,1-.39,2.24,4.5,4.5,0,0,1-1.17,1.77,4.11,4.11,0,0,1-2.07,1Z" transform="translate(0)"/><path class="cls-2" d="M502,176.19a4.93,4.93,0,0,1-3.58-1.38,4.45,4.45,0,0,1-1.43-3.29,4.15,4.15,0,0,1,1.43-3.19A5.09,5.09,0,0,1,502,167a5,5,0,0,1,3.5,1.3,4.14,4.14,0,0,1,1.42,3.19,4.44,4.44,0,0,1-1.42,3.29A4.84,4.84,0,0,1,502,176.19Z" transform="translate(0)"/></g></g></svg>