<svg xmlns="http://www.w3.org/2000/svg" viewBox="0 0 733.84 733.84"><defs><style>.cls-1{fill:#121b35;}.cls-2{fill:#fff;}</style></defs><g id="Layer_2" data-name="Layer 2"><g id="Layer_1-2" data-name="Layer 1"><rect class="cls-1" width="733.84" height="733.84" rx="91.73"/><path class="cls-2" d="M201.07,356.78V139.54h73.44v163.9a451.24,451.24,0,0,0,35.77-36V112h-145V375.23c8.43-3.86,17-8.1,25.7-12.8C194.41,360.57,197.76,358.68,201.07,356.78Z"/><path class="cls-2" d="M342.87,482.42A526.49,526.49,0,0,0,473.56,357a526.76,526.76,0,0,0,86-183.09H408.31c-15,37.44-49.49,108.53-123.41,167.92a404.22,404.22,0,0,1-119.61,66.25V450.6c35,2.52,79.79,11.14,125.17,35.91,8.32,4.54,16.06,9.3,23.27,14.16,8.6-5,18.43-11,29.13-18.24Zm-110-60.74a445.29,445.29,0,0,0,67.68-43.91c74.41-58.54,112.69-127.13,130.8-166.4h83.14a554.51,554.51,0,0,1-88,146.17A553.87,553.87,0,0,1,313.73,459.7v.3A303,303,0,0,0,232.9,421.68Z"/><path class="cls-2" d="M533.74,525a442.65,442.65,0,0,0-74.85-96.1q-8.81,8.14-17.7,16.69-4.62,4.44-9.11,8.85a483.1,483.1,0,0,1,65.25,84.22c8.53,13.95,15.84,27.52,22.13,40.46H437.35c-.71-1.18-1.42-2.36-2.16-3.54a395.5,395.5,0,0,0-60.26-74.86l-29.26,21.07a298.6,298.6,0,0,1,74,94.76H535.77l37.93.5A441.7,441.7,0,0,0,533.74,525Z"/><path class="cls-2" d="M226.43,489.24a66.29,66.29,0,1,0,66.29,66.29A66.29,66.29,0,0,0,226.43,489.24Zm0,93.87A27.58,27.58,0,1,1,254,555.53,27.58,27.58,0,0,1,226.43,583.11Z"/></g></g></svg>