<svg xmlns="http://www.w3.org/2000/svg" viewBox="0 0 131.28 161.83"><defs><style>.cls-1{fill:#121b35;}</style></defs><g id="Layer_2" data-name="Layer 2"><g id="Layer_1-2" data-name="Layer 1"><path class="cls-1" d="M13,77.69V8.74H36.3v52A141.81,141.81,0,0,0,47.66,49.33V0h-46V83.55C4.31,82.33,7,81,9.79,79.49,10.88,78.9,11.94,78.3,13,77.69Z"/><path class="cls-1" d="M58,117.58a167.37,167.37,0,0,0,41.48-39.8,167.39,167.39,0,0,0,27.29-58.12h-48A130.58,130.58,0,0,1,39.6,73a128.32,128.32,0,0,1-38,21v13.49a97.09,97.09,0,0,1,39.73,11.4c2.64,1.44,5.1,3,7.38,4.49,2.73-1.59,5.85-3.5,9.25-5.79ZM23.1,98.3A141.61,141.61,0,0,0,44.58,84.36,144.09,144.09,0,0,0,86.1,31.54h26.39a175.8,175.8,0,0,1-27.93,46.4,176,176,0,0,1-35.81,32.43v.09A96.07,96.07,0,0,0,23.1,98.3Z"/><path class="cls-1" d="M118.59,131.08a140.33,140.33,0,0,0-23.76-30.51c-1.86,1.73-3.74,3.49-5.62,5.3l-2.89,2.81A153.11,153.11,0,0,1,107,135.41c2.71,4.43,5,8.74,7,12.85H88l-.69-1.13a125.76,125.76,0,0,0-19.13-23.76l-9.29,6.69a95.1,95.1,0,0,1,15.23,16.43,94.88,94.88,0,0,1,8.27,13.65h36.85l12,.16A140.15,140.15,0,0,0,118.59,131.08Z"/><path class="cls-1" d="M21,119.74a21,21,0,1,0,21.05,21A21,21,0,0,0,21,119.74Zm0,29.8a8.76,8.76,0,1,1,8.76-8.75A8.75,8.75,0,0,1,21,149.54Z"/></g></g></svg>